<?xml version="1.0"?><svg width="2271.44" height="1665.708" xmlns="http://www.w3.org/2000/svg" xmlns:xlink="http://www.w3.org/1999/xlink">
 <title>Plain grass and sky</title>
 <defs>
  <linearGradient id="linearGradient4238">
   <stop offset="0" stop-color="#55a800" id="stop4240"/>
   <stop offset="1" stop-color="#74e400" id="stop4242"/>
  </linearGradient>
  <linearGradient id="linearGradient4103">
   <stop offset="0" stop-color="#00acf4" id="stop4105"/>
   <stop offset="1" stop-color="#a6e5ff" id="stop4107"/>
  </linearGradient>
  <linearGradient xlink:href="#linearGradient4103" y2="1" x2="0.474214" y1="-0.189418" x1="0.474214" id="linearGradient4109"/>
  <clipPath clipPathUnits="userSpaceOnUse" id="clipPath4234">
   <path d="m-701.794983,85.707802c-11.655029,0 -21.062012,5.752098 -21.062012,12.875l0,830.031212c73.680969,-9.907043 153.85199,-15.062012 237.156006,-15.062012c343.816986,0 484.305789,44.117004 822.843994,235.718018c342.856995,194.049927 775.267029,461.419922 -891.406006,464.280029c-60.10498,0.099976 -116.484009,-9.400024 -168.593994,-25.940063l0,150.969971c0,7.130005 9.406982,12.850098 21.062012,12.850098l2229.345032,0c11.649902,0 21.029907,-5.720093 21.029907,-12.850098l0,-640l0,-67.399902l0,-932.597252c0,-7.122902 -9.380005,-12.875 -21.029907,-12.875l-2229.345032,0z" stroke-width="3" stroke-miterlimit="4" stroke-linejoin="round" stroke-linecap="round" stroke-dashoffset="0" fill="#9cf000" id="path4236"/>
  </clipPath>
  <clipPath clipPathUnits="userSpaceOnUse" id="clipPath4253">
   <path d="m272.490997,62.8507c-11.656006,0 -21.061996,5.752098 -21.061996,12.874901l0,830.031418l0,169.972961l0,640c0,7.119995 9.406998,12.839966 21.061996,12.839966l2229.339081,0c11.659912,0 21.040039,-5.719971 21.040039,-12.839966l0,-640l0,-67.409973l0,-932.594406c0,-7.122803 -9.380127,-12.874901 -21.040039,-12.874901l-2229.339081,0z" stroke-width="3" stroke-miterlimit="4" stroke-linejoin="round" stroke-linecap="round" stroke-dashoffset="0" fill="url(#linearGradient4257)" id="path4255"/>
  </clipPath>
  <linearGradient xlink:href="#linearGradient4103" y2="0.615842" x2="0.474216" y1="-0.116636" x1="0.474216" id="linearGradient4257"/>
  <linearGradient xlink:href="#linearGradient4238" y2="1.4259" x2="0.510673" y1="-0.070132" x1="0.5" id="linearGradient4263"/>
  <clipPath clipPathUnits="userSpaceOnUse" id="clipPath5381">
   <path d="m798.213013,156.399994c-48.512024,0 -90.277039,11.930008 -108.88501,29.029007c-4.268005,-0.294998 -8.609009,-0.458008 -13.018982,-0.458008c-57.892029,0 -104.88501,26.516006 -104.88501,59.185013c0,28.59198 35.995972,52.464996 83.786011,57.97998c14.847961,30.920013 81.281006,54.264008 160.924988,54.264008c90.547974,0 164.041992,-30.167999 164.041992,-67.343994l-0.117004,-1.083008c29.330017,-9.231995 48.519958,-24.501007 48.519958,-41.773987l-0.419922,-4.386002c-5.100037,-26.51001 -53.969055,-46.621002 -113.327026,-46.641006c-11.47998,-22.432999 -59.406006,-38.772003 -116.619995,-38.772003z" stroke-width="5" stroke-miterlimit="4" stroke-linejoin="round" stroke-linecap="round" stroke-dashoffset="0" fill="#fdfdfd" opacity="0.893333" id="path5383"/>
  </clipPath>
  <clipPath clipPathUnits="userSpaceOnUse" id="clipPath5495">
   <path d="m1832.5,64.971199c-48.51001,0 -90.280029,11.93 -108.890015,29.028999c-4.26001,-0.2948 -8.609985,-0.457596 -13.02002,-0.457497c-57.890015,0 -104.880005,26.516296 -104.880005,59.185295c0,28.591003 36,52.464005 83.790039,57.979996c14.839966,30.919006 81.280029,54.263016 160.920044,54.263016c90.549927,0 164.039917,-30.168015 164.039917,-67.344009l-0.109985,-1.082001c29.330078,-9.231995 48.520142,-24.501999 48.520142,-41.774994l-0.430176,-4.386002c-5.099854,-26.509003 -53.959961,-46.620003 -113.319946,-46.639999c-11.47998,-22.433907 -59.410034,-38.772804 -116.619995,-38.772804z" stroke-width="5" stroke-miterlimit="4" stroke-linejoin="round" stroke-linecap="round" stroke-dashoffset="0" fill="#fdfdfd" opacity="0.893333" id="path5497"/>
  </clipPath>
  <clipPath clipPathUnits="userSpaceOnUse" id="clipPath5671">
   <rect ry="21.5973" rx="35.3411" height="1722.99" width="3815.53" y="-42.66" x="-59.7192" stroke-width="3" stroke-miterlimit="4" stroke-linejoin="round" stroke-linecap="round" stroke-dashoffset="0" fill="url(#linearGradient5675)" id="rect5673"/>
  </clipPath>
  <linearGradient xlink:href="#linearGradient4103" y2="1" x2="0.474214" y1="-0.189418" x1="0.474214" id="linearGradient5675"/>
  <clipPath clipPathUnits="userSpaceOnUse" id="clipPath5677">
   <rect ry="20.375" rx="33.3409" height="1625.47" width="3599.58" y="-30.4235" x="-51.1641" stroke-width="3" stroke-miterlimit="4" stroke-linejoin="round" stroke-linecap="round" stroke-dashoffset="0" fill="url(#linearGradient5681)" id="rect5679"/>
  </clipPath>
  <linearGradient xlink:href="#linearGradient4103" y2="1" x2="0.474214" y1="-0.189418" x1="0.474214" id="linearGradient5681"/>
 </defs>
 <metadata id="metadata7">image/svg+xmlSummer LandscapeCarlos AsmatsummergreenlandscapetreecloudsA simple summer landscape featuring green grass, a blue sky and white clouds.</metadata>
 <g>
  <title>Layer 1</title>
  <rect ry="12.8571" rx="21.039" height="1025.71" width="2271.43" y="0" x="0.00891" stroke-width="3" stroke-miterlimit="4" stroke-linejoin="round" stroke-linecap="round" stroke-dashoffset="0" fill="url(#linearGradient4109)" id="rect2160"/>
  <path d="m1211.439941,804.961975c-215.17395,0 -379.223938,34.241028 -506.189941,86.407043c-139.692993,-48.926025 -270.223999,-63.532043 -468.093994,-63.532043c-83.303009,0 -163.475403,5.155029 -237.156006,15.063049l0,809.969971c0,7.119995 9.40692,12.839966 21.0625,12.839966l2229.347412,0c11.650146,0 21.030029,-5.719971 21.030029,-12.839966l0,-707.40802c-167.75,0.929016 -334.179932,3.174011 -499.129883,6.719055c-168.050049,-63.884033 -304.030029,-147.219055 -560.870117,-147.219055z" stroke-width="3" stroke-miterlimit="4" stroke-linejoin="round" stroke-linecap="round" stroke-dashoffset="0" fill="url(#linearGradient4263)" id="path4202"/>
  <path d="m177.634003,1302.810059c-4.182999,1.419922 -5.229004,4.699951 -8.742004,9.599976c-4.570999,8.409912 -13.828995,33.589966 -12.787994,37.709961c1.380997,7.410034 13.011993,-34.619995 21.529999,-47.309937zm-78.536003,18.329956c9.929001,30.299927 10.862999,32.569946 18.607002,32.130005c-1.645004,-5.589966 -6.366005,-10.140015 -9.679001,-15.450073c-3.530998,-5.669922 -5.450005,-16.259888 -8.928001,-16.679932zm34.898994,1.109985c-11.299995,19.800049 -12.506996,26.930054 -10.603996,29.160034c3.480003,2.150024 2.721001,-3.470093 10.603996,-29.160034zm21.141006,4.23999c-2.781998,-0.76001 -4.809006,6.099976 -5.914993,11.709961c-2.823013,14.320068 -2.855011,12.25 -0.952011,13.470093c2.624008,1.669922 2.608002,-12.940063 6.867004,-25.180054zm18.712006,-1.309937c-2.912003,0.139893 -4.427002,5.939941 -6.469009,11.289917c-2.050003,10.210083 -8.018997,16.560059 -3.80899,16.950073c4.184998,0.380005 7.079987,-16.119995 10.278,-28.23999zm-31.209,3.929932c-9.182007,16.410034 -11.146011,21.450073 -7.458008,22.130005c2.378006,0.430054 2.565994,-3.579956 5.279999,-10.319946c1.749008,-4.350098 3.929001,-8.160034 2.178009,-11.810059z" stroke-width="3" stroke-miterlimit="4" stroke-linejoin="round" stroke-linecap="round" stroke-dashoffset="0" fill="#1e9e00" opacity="0.698" id="path7786"/>
  <g transform="matrix(-0.210623 0 0 0.556237 -341.333 359.596)" fill="#009800" opacity="0.697778" display="inline" id="g5828">
   <path d="m-3418.02002,2091.649902c-12.949951,-57.299927 -65.419922,-104.149902 -110.75,-139.779907c58.280029,5.959961 98.620117,69.920044 124.040039,117.930054c2.570068,8.97998 -2.449951,22.199951 -13.290039,21.849854z" stroke-width="5" stroke-miterlimit="4" stroke-linejoin="round" stroke-linecap="round" stroke-dashoffset="0" fill="#009800" id="path5830"/>
   <path d="m-3343.439941,2082.969971c16.929932,-30.070068 -35.47998,-114.77002 -26.25,-150.659912c29.290039,54.48999 47.23999,92.359985 42.01001,140.909912c-3.410156,5.679932 -10.5,6.570068 -15.76001,9.75z" stroke-width="5" stroke-miterlimit="4" stroke-linejoin="round" stroke-linecap="round" stroke-dashoffset="0" fill="#009800" id="path5832"/>
   <path d="m-3268.919922,2080.610107c25.23999,-47.250122 55.25,-94.930054 108.530029,-113.320068c-29.52002,20.459961 -63.090088,41.02002 -76.150146,76.459961c-6.849854,14.830078 -14.699951,32.870117 -32.379883,36.860107z" stroke-width="5" stroke-miterlimit="4" stroke-linejoin="round" stroke-linecap="round" stroke-dashoffset="0" fill="#009800" id="path5834"/>
   <path d="m-3160.149902,2089.560059c20.26001,-9.160156 40.629883,-61.060059 69.029785,-84.920044c-31.309814,78.410034 -42.599854,86.359985 -69.029785,84.920044z" stroke-width="5" stroke-miterlimit="4" stroke-linejoin="round" stroke-linecap="round" stroke-dashoffset="0" fill="#009800" id="path5836"/>
   <path d="m-3303.209961,2072.030029c12.679932,-15.090088 17.679932,-39.51001 39.27002,-44.820068c-11.709961,15.820068 -17.51001,39.780029 -39.27002,44.820068z" stroke-width="5" stroke-miterlimit="4" stroke-linejoin="round" stroke-linecap="round" stroke-dashoffset="0" fill="#009800" id="path5838"/>
   <path d="m-3382.01001,2046.72998c-10.25,-21.319946 -21.090088,-42.660034 -36.159912,-61.049927c42.01001,18.969971 55.649902,50.299927 36.159912,61.049927z" stroke-width="5" stroke-miterlimit="4" stroke-linejoin="round" stroke-linecap="round" stroke-dashoffset="0" fill="#009800" id="path5840"/>
   <path d="m-3188.620117,2043.349976c18.25,-21.309937 39.850098,-40.689941 65.960205,-51.719971c-22.98999,11.939941 -42.080078,44.869995 -65.960205,51.719971z" stroke-width="5" stroke-miterlimit="4" stroke-linejoin="round" stroke-linecap="round" stroke-dashoffset="0" fill="#009800" id="path5842"/>
  </g>
  <g transform="matrix(-0.284483 0 0 0.391411 808.187 580.556)" fill="#008c00" opacity="0.697778" display="inline" id="g5844">
   <path d="m-2516.399902,2243.949951c-12.950195,-57.300049 -65.410156,-104.139893 -110.75,-139.77002c58.279785,5.959961 98.619873,69.920166 124.039795,117.930176c2.570068,8.97998 -2.449951,22.199951 -13.289795,21.839844z" stroke-width="5" stroke-miterlimit="4" stroke-linejoin="round" stroke-linecap="round" stroke-dashoffset="0" fill="#008c00" id="path5846"/>
   <path d="m-2441.810059,2235.280029c16.920166,-30.080078 -35.47998,-114.77002 -26.26001,-150.659912c29.290039,54.47998 47.23999,92.349854 42.01001,140.909912c-3.409912,5.679932 -10.48999,6.570068 -15.75,9.75z" stroke-width="5" stroke-miterlimit="4" stroke-linejoin="round" stroke-linecap="round" stroke-dashoffset="0" fill="#008c00" id="path5848"/>
   <path d="m-2367.300049,2232.909912c25.25,-47.25 55.26001,-94.919922 108.540039,-113.319824c-29.530029,20.459961 -63.100098,41.030029 -76.159912,76.459961c-6.850098,14.829834 -14.700195,32.879883 -32.380127,36.859863z" stroke-width="5" stroke-miterlimit="4" stroke-linejoin="round" stroke-linecap="round" stroke-dashoffset="0" fill="#008c00" id="path5850"/>
   <path d="m-2258.530029,2241.870117c20.26001,-9.160156 40.630127,-61.070068 69.030029,-84.930176c-31.310059,78.420166 -42.600098,86.370117 -69.030029,84.930176z" stroke-width="5" stroke-miterlimit="4" stroke-linejoin="round" stroke-linecap="round" stroke-dashoffset="0" fill="#008c00" id="path5852"/>
   <path d="m-2401.590088,2224.340088c12.680176,-15.090088 17.680176,-39.51001 39.27002,-44.820068c-11.709961,15.820068 -17.5,39.780029 -39.27002,44.820068z" stroke-width="5" stroke-miterlimit="4" stroke-linejoin="round" stroke-linecap="round" stroke-dashoffset="0" fill="#008c00" id="path5854"/>
   <path d="m-2480.389893,2199.040039c-10.25,-21.330078 -21.080078,-42.660156 -36.160156,-61.050049c42.02002,18.969971 55.650146,50.300049 36.160156,61.050049z" stroke-width="5" stroke-miterlimit="4" stroke-linejoin="round" stroke-linecap="round" stroke-dashoffset="0" fill="#008c00" id="path5856"/>
   <path d="m-2287,2195.659912c18.26001,-21.309814 39.850098,-40.689941 65.959961,-51.719971c-22.98999,11.939941 -42.070068,44.870117 -65.959961,51.719971z" stroke-width="5" stroke-miterlimit="4" stroke-linejoin="round" stroke-linecap="round" stroke-dashoffset="0" fill="#008c00" id="path5858"/>
  </g>
  <g transform="matrix(0.326029 0 0 0.480164 1333.72 586.943)" fill="#008c00" opacity="0.697778" display="inline" id="g5860">
   <path d="m2298.199951,2148.949951c-12.959961,-57.300049 -65.419922,-104.149902 -110.76001,-139.779907c58.290039,5.969971 98.620117,69.930054 124.040039,117.940063c2.570068,8.969971 -2.449951,22.189941 -13.280029,21.839844z" stroke-width="5" stroke-miterlimit="4" stroke-linejoin="round" stroke-linecap="round" stroke-dashoffset="0" fill="#008c00" id="path5862"/>
   <path d="m2372.780029,2140.27002c16.919922,-30.070068 -35.47998,-114.77002 -26.26001,-150.660034c29.290039,54.48999 47.23999,92.359985 42.02002,140.920044c-3.419922,5.669922 -10.5,6.560059 -15.76001,9.73999z" stroke-width="5" stroke-miterlimit="4" stroke-linejoin="round" stroke-linecap="round" stroke-dashoffset="0" fill="#008c00" id="path5864"/>
   <path d="m2447.290039,2137.909912c25.25,-47.25 55.26001,-94.919922 108.540039,-113.319946c-29.530029,20.460083 -63.100098,41.020142 -76.160156,76.460083c-6.849854,14.829834 -14.699951,32.879883 -32.379883,36.859863z" stroke-width="5" stroke-miterlimit="4" stroke-linejoin="round" stroke-linecap="round" stroke-dashoffset="0" fill="#008c00" id="path5866"/>
   <path d="m2556.060059,2146.870117c20.27002,-9.160156 40.639893,-61.070068 69.030029,-84.930176c-31.300049,78.410156 -42.600098,86.370117 -69.030029,84.930176z" stroke-width="5" stroke-miterlimit="4" stroke-linejoin="round" stroke-linecap="round" stroke-dashoffset="0" fill="#008c00" id="path5868"/>
   <path d="m2413,2129.340088c12.679932,-15.090088 17.689941,-39.51001 39.27002,-44.830078c-11.709961,15.830078 -17.5,39.780029 -39.27002,44.830078z" stroke-width="5" stroke-miterlimit="4" stroke-linejoin="round" stroke-linecap="round" stroke-dashoffset="0" fill="#008c00" id="path5870"/>
   <path d="m2334.209961,2104.030029c-10.25,-21.320068 -21.089844,-42.659912 -36.169922,-61.040039c42.02002,18.969971 55.649902,50.300049 36.169922,61.040039z" stroke-width="5" stroke-miterlimit="4" stroke-linejoin="round" stroke-linecap="round" stroke-dashoffset="0" fill="#008c00" id="path5872"/>
   <path d="m2527.590088,2100.659912c18.26001,-21.319824 39.849854,-40.699951 65.959961,-51.72998c-22.98999,11.949951 -42.070068,44.870117 -65.959961,51.72998z" stroke-width="5" stroke-miterlimit="4" stroke-linejoin="round" stroke-linecap="round" stroke-dashoffset="0" fill="#008c00" id="path5874"/>
  </g>
  <g transform="matrix(-0.192158 0 0 0.213906 1121.46 743.183)" fill="#008c00" opacity="0.697778" display="inline" id="g5876">
   <path d="m-3751.719971,2670.47998c-12.959961,-57.300049 -65.419922,-104.149902 -110.76001,-139.780029c58.290039,5.959961 98.619873,69.920166 124.040039,117.929932c2.569824,8.980225 -2.449951,22.200195 -13.280029,21.850098z" stroke-width="5" stroke-miterlimit="4" stroke-linejoin="round" stroke-linecap="round" stroke-dashoffset="0" fill="#008c00" id="path5878"/>
   <path d="m-3677.139893,2661.800049c16.919922,-30.070068 -35.480225,-114.77002 -26.26001,-150.660156c29.289795,54.480225 47.23999,92.360107 42.02002,140.910156c-3.420166,5.679932 -10.5,6.570068 -15.76001,9.75z" stroke-width="5" stroke-miterlimit="4" stroke-linejoin="round" stroke-linecap="round" stroke-dashoffset="0" fill="#008c00" id="path5880"/>
   <path d="m-3602.629883,2659.439941c25.25,-47.26001 55.259766,-94.929932 108.539795,-113.319824c-29.530029,20.459961 -63.099854,41.019775 -76.159912,76.459961c-6.840088,14.829834 -14.699951,32.869873 -32.379883,36.859863z" stroke-width="5" stroke-miterlimit="4" stroke-linejoin="round" stroke-linecap="round" stroke-dashoffset="0" fill="#008c00" id="path5882"/>
   <path d="m-3493.860107,2668.389893c20.27002,-9.159912 40.640137,-61.059814 69.030029,-84.929932c-31.299805,78.419922 -42.599854,86.370117 -69.030029,84.929932z" stroke-width="5" stroke-miterlimit="4" stroke-linejoin="round" stroke-linecap="round" stroke-dashoffset="0" fill="#008c00" id="path5884"/>
   <path d="m-3636.919922,2650.860107c12.679932,-15.090088 17.689941,-39.51001 39.27002,-44.820068c-11.710205,15.820068 -17.5,39.780029 -39.27002,44.820068z" stroke-width="5" stroke-miterlimit="4" stroke-linejoin="round" stroke-linecap="round" stroke-dashoffset="0" fill="#008c00" id="path5886"/>
   <path d="m-3715.709961,2625.560059c-10.25,-21.320068 -21.090088,-42.660156 -36.169922,-61.050049c42.019775,18.969971 55.649902,50.300049 36.169922,61.050049z" stroke-width="5" stroke-miterlimit="4" stroke-linejoin="round" stroke-linecap="round" stroke-dashoffset="0" fill="#008c00" id="path5888"/>
   <path d="m-3522.320068,2622.179932c18.25,-21.309814 39.840088,-40.689941 65.959961,-51.719971c-23,11.939941 -42.079834,44.870117 -65.959961,51.719971z" stroke-width="5" stroke-miterlimit="4" stroke-linejoin="round" stroke-linecap="round" stroke-dashoffset="0" fill="#008c00" id="path5890"/>
  </g>
  <g transform="matrix(0.169077 0 0 0.16319 1217.85 559.511)" fill="#008c00" opacity="0.697778" display="inline" id="g5892">
   <path d="m4380.790039,2962.77002c-12.950195,-57.300049 -65.410156,-104.149902 -110.75,-139.780029c58.279785,5.959961 98.620117,69.919922 124.040039,117.929932c2.569824,8.97998 -2.450195,22.200195 -13.290039,21.850098z" stroke-width="5" stroke-miterlimit="4" stroke-linejoin="round" stroke-linecap="round" stroke-dashoffset="0" fill="#008c00" id="path5894"/>
   <path d="m4455.379883,2954.090088c16.919922,-30.070068 -35.47998,-114.77002 -26.259766,-150.660156c29.290039,54.47998 47.239746,92.360107 42.009766,140.910156c-3.409668,5.679932 -10.5,6.569824 -15.75,9.75z" stroke-width="5" stroke-miterlimit="4" stroke-linejoin="round" stroke-linecap="round" stroke-dashoffset="0" fill="#008c00" id="path5896"/>
   <path d="m4529.890137,2951.719971c25.25,-47.25 55.259766,-94.919922 108.540039,-113.310059c-29.530273,20.460205 -63.100098,41.02002 -76.160156,76.460205c-6.850098,14.829834 -14.700195,32.869873 -32.379883,36.849854z" stroke-width="5" stroke-miterlimit="4" stroke-linejoin="round" stroke-linecap="round" stroke-dashoffset="0" fill="#008c00" id="path5898"/>
   <path d="m4638.660156,2960.679932c20.259766,-9.159912 40.629883,-61.059814 69.029785,-84.929932c-31.310059,78.419922 -42.600098,86.370117 -69.029785,84.929932z" stroke-width="5" stroke-miterlimit="4" stroke-linejoin="round" stroke-linecap="round" stroke-dashoffset="0" fill="#008c00" id="path5900"/>
   <path d="m4495.600098,2943.149902c12.679688,-15.089844 17.679688,-39.51001 39.27002,-44.819824c-11.709961,15.819824 -17.510254,39.780029 -39.27002,44.819824z" stroke-width="5" stroke-miterlimit="4" stroke-linejoin="round" stroke-linecap="round" stroke-dashoffset="0" fill="#008c00" id="path5902"/>
   <path d="m4416.799805,2917.850098c-10.25,-21.320068 -21.07959,-42.660156 -36.159668,-61.050049c42.02002,18.969971 55.649902,50.300049 36.159668,61.050049z" stroke-width="5" stroke-miterlimit="4" stroke-linejoin="round" stroke-linecap="round" stroke-dashoffset="0" fill="#008c00" id="path5904"/>
   <path d="m4610.189941,2914.469971c18.260254,-21.310059 39.850098,-40.689941 65.959961,-51.719971c-22.989746,11.939941 -42.069824,44.870117 -65.959961,51.719971z" stroke-width="5" stroke-miterlimit="4" stroke-linejoin="round" stroke-linecap="round" stroke-dashoffset="0" fill="#008c00" id="path5906"/>
  </g>
  <g transform="matrix(0.38604 0 0 0.492843 -213.2 373.302)" fill="#009800" display="inline" id="g5811">
   <path d="m1949.439941,2138.169922c-12.959961,-57.299805 -65.419922,-104.149902 -110.75,-139.779907c58.280029,5.969971 98.620117,69.930054 124.030029,117.940063c2.580078,8.969971 -2.439941,22.189941 -13.280029,21.839844z" stroke-width="5" stroke-miterlimit="4" stroke-linejoin="round" stroke-linecap="round" stroke-dashoffset="0" fill="#009800" id="path5727"/>
   <path d="m2024.02002,2129.48999c16.919922,-30.070068 -35.47998,-114.77002 -26.25,-150.660034c29.290039,54.48999 47.23999,92.359985 42.01001,140.920044c-3.420044,5.669922 -10.5,6.560059 -15.76001,9.73999z" stroke-width="5" stroke-miterlimit="4" stroke-linejoin="round" stroke-linecap="round" stroke-dashoffset="0" fill="#009800" id="path5729"/>
   <path d="m2098.530029,2127.129883c25.25,-47.25 55.26001,-94.919922 108.540039,-113.319824c-29.530029,20.459961 -63.090088,41.02002 -76.160156,76.459961c-6.839844,14.830078 -14.689941,32.879883 -32.379883,36.859863z" stroke-width="5" stroke-miterlimit="4" stroke-linejoin="round" stroke-linecap="round" stroke-dashoffset="0" fill="#009800" id="path5731"/>
   <path d="m2207.310059,2136.090088c20.26001,-9.160156 40.629883,-61.070068 69.030029,-84.930176c-31.310059,78.410156 -42.610107,86.370117 -69.030029,84.930176z" stroke-width="5" stroke-miterlimit="4" stroke-linejoin="round" stroke-linecap="round" stroke-dashoffset="0" fill="#009800" id="path5733"/>
   <path d="m2064.25,2118.560059c12.679932,-15.090088 17.679932,-39.51001 39.27002,-44.830078c-11.709961,15.830078 -17.51001,39.780029 -39.27002,44.830078z" stroke-width="5" stroke-miterlimit="4" stroke-linejoin="round" stroke-linecap="round" stroke-dashoffset="0" fill="#009800" id="path5735"/>
   <path d="m1985.449951,2093.25c-10.25,-21.320068 -21.089966,-42.659912 -36.169922,-61.040039c42.02002,18.969971 55.650024,50.300049 36.169922,61.040039z" stroke-width="5" stroke-miterlimit="4" stroke-linejoin="round" stroke-linecap="round" stroke-dashoffset="0" fill="#009800" id="path5737"/>
   <path d="m2178.840088,2089.879883c18.25,-21.319824 39.839844,-40.699951 65.959961,-51.729858c-22.98999,11.950073 -42.080078,44.869995 -65.959961,51.729858z" stroke-width="5" stroke-miterlimit="4" stroke-linejoin="round" stroke-linecap="round" stroke-dashoffset="0" fill="#009800" id="path5753"/>
  </g>
  <path d="m2186.070068,961.375977c1.530029,0.31604 1.909912,1.042053 3.189941,2.128052c1.659912,1.863953 5.030029,7.444946 4.649902,8.357971c-0.5,1.643982 -4.73999,-7.671997 -7.839844,-10.486023zm28.589844,4.064026c-3.609863,6.716003 -3.949951,7.218994 -6.77002,7.122009c0.600098,-1.23999 2.320068,-2.249023 3.52002,-3.427002c1.290039,-1.255005 1.98999,-3.603027 3.25,-3.695007zm-12.699951,0.244019c4.110107,4.388977 4.550049,5.968994 3.860107,6.462952c-1.27002,0.477051 -0.98999,-0.767944 -3.860107,-6.462952zm-7.699951,0.941956c1.02002,-0.169006 1.75,1.351013 2.159912,2.593994c1.02002,3.175049 1.040039,2.716003 0.340088,2.985046c-0.949951,0.370972 -0.949951,-2.868042 -2.5,-5.579041zm-6.810059,-0.291992c1.060059,0.031006 1.610107,1.317017 2.360107,2.504028c0.73999,2.263 2.909912,3.669006 1.379883,3.755005c-1.52002,0.084961 -2.579834,-3.572998 -3.73999,-6.259033zm11.360107,0.871033c3.339844,3.638977 4.060059,4.755005 2.719971,4.904968c-0.870117,0.096985 -0.939941,-0.791992 -1.929932,-2.286987c-0.630127,-0.963013 -1.430176,-1.807007 -0.790039,-2.617981z" stroke-width="3" stroke-miterlimit="4" stroke-linejoin="round" stroke-linecap="round" stroke-dashoffset="0" fill="#1e9e00" opacity="0.698" id="path7788"/>
 </g>
</svg>